<svg xmlns="http://www.w3.org/2000/svg" width="1100" height="640" viewBox="0 0 1100 640">
<rect width="1100" height="640" fill="white"/>
<g font-family="Arial,sans-serif" fill="#17212b">
<text x="40" y="44" font-size="25">ESP32-S3 single-servo prototype wiring</text>
<text x="40" y="73" font-size="15">Repeat per controller. Servo and power-supply models remain to be selected.</text>
<g fill="#edf3f5" stroke="#17212b" stroke-width="2">
<rect x="50" y="120" width="235" height="190" rx="4"/>
<rect x="445" y="120" width="215" height="375" rx="4"/>
<rect x="855" y="165" width="195" height="140" rx="4"/>
<rect x="855" y="400" width="195" height="95" rx="4"/>
</g>
<text x="70" y="147" font-size="20">Joystick (3.3 V)</text>
<text x="465" y="150" font-size="20">ESP32-S3 DevKit</text>
<text x="875" y="195" font-size="20">Positional servo</text>
<text x="875" y="426" font-size="18">Servo supply</text>
<g font-size="15">
<text x="230" y="180">VCC</text><text x="465" y="180">3V3</text>
<text x="230" y="211">VRx</text><text x="465" y="211">GPIO4</text>
<text x="230" y="242">VRy</text><text x="465" y="242">GPIO5</text>
<text x="230" y="273">SW</text><text x="465" y="273">GPIO7 (pull-up)</text>
<text x="75" y="297">GND: joystick + switch return</text>
<text x="555" y="233">GPIO18</text><text x="875" y="233">Signal</text>
<text x="555" y="342">GPIO6</text><text x="465" y="469">GND</text>
<text x="875" y="271">V+</text><text x="987" y="271">GND</text>
<text x="875" y="462">V+ rated for servo</text>
<text x="875" y="485">GND</text>
<text x="67" y="376">FSR</text><text x="145" y="395">10k ohm</text>
<text x="50" y="444">3V3 → FSR → ADC node → 10k → GND</text>
</g>
<g fill="none" stroke-width="3">
<path d="M285 175 H445" stroke="#c73345"/>
<path d="M285 206 H445 M285 237 H445 M285 268 H445" stroke="#1b785a"/>
<path d="M660 228 H855" stroke="#1b785a"/>
<path d="M65 350 H100 M100 350 V369 H147 V350 H205 V340 H445" stroke="#1b785a"/>
<path d="M65 350 V325 H345 V175 H445" stroke="#c73345"/>
<path d="M205 350 V378 H225 V416 H205 V465 H445" stroke="#17212b"/>
<path d="M120 310 V465 H445 M660 465 H795 V555 H1015 V305 M1015 495 V555" stroke="#17212b"/>
<path d="M890 305 V400" stroke="#c73345"/>
</g>
<circle cx="205" cy="350" r="5" fill="#1b785a"/>
<text x="50" y="590" font-size="16">Servo ground and controller ground must be connected. Servo power must not use the 3.3 V rail.</text>
<text x="50" y="618" font-size="16">Prototype signal diagram only: final supply, fusing, disconnect, connectors and Pi/display wiring are unresolved.</text>
</g>
</svg>
